<svg xmlns="http://www.w3.org/2000/svg" viewBox="0 0 500 500" role="img" aria-labelledby="title desc">
  <title id="title">Endosome</title>
  <desc id="desc">Flat multivesicular endosome icon adapted from NIH BioArt 605.</desc>
  <defs>
    <g id="intraluminal-vesicle">
      <path
        d="M246.44 435.58c-97.28 0-177.27-73.16-186.07-170.17-4.52-49.76 10.62-98.3 42.61-136.68 32-38.38 77.02-62 126.78-66.52 5.68-.52 11.44-.78 17.12-.78 97.27 0 177.27 73.16 186.07 170.18 4.52 49.76-10.62 98.3-42.61 136.68-32 38.38-77.02 62-126.78 66.52-5.68.52-11.45.78-17.12.78Z"
        fill="#F6E7F2"
      />
      <path
        d="M246.44 445.3c-102.34 0-186.49-76.96-195.76-179.02-4.75-52.35 11.17-103.42 44.83-143.79 33.66-40.37 81.02-65.22 133.37-69.97 5.96-.54 12.02-.82 18.01-.82 102.34 0 186.49 76.96 195.76 179.02 4.75 52.35-11.17 103.41-44.82 143.79-33.66 40.37-81.03 65.22-133.38 69.97-5.96.54-12.02.82-18.01.82Zm.45-374.14c-5.4 0-10.86.25-16.25.73-47.17 4.28-89.86 26.68-120.19 63.06-30.33 36.38-44.68 82.4-40.4 129.57 8.34 91.97 84.17 161.33 176.38 161.33 5.4 0 10.86-.25 16.25-.73 47.17-4.28 89.86-26.68 120.2-63.06 30.33-36.38 44.67-82.4 40.39-129.57-8.34-91.97-84.17-161.33-176.38-161.33Z"
        fill="#D999BB"
        stroke="#75556F"
        stroke-width="5"
        stroke-linejoin="round"
      />
    </g>
  </defs>

  <path
    d="M246.44 435.58c-97.28 0-177.27-73.16-186.07-170.17-4.52-49.76 10.62-98.3 42.61-136.68 32-38.38 77.02-62 126.78-66.52 5.68-.52 11.44-.78 17.12-.78 97.27 0 177.27 73.16 186.07 170.18 4.52 49.76-10.62 98.3-42.61 136.68-32 38.38-77.02 62-126.78 66.52-5.68.52-11.45.78-17.12.78Z"
    fill="#F8F1FB"
  />
  <path
    d="M246.44 445.3c-102.34 0-186.49-76.96-195.76-179.02-4.75-52.35 11.17-103.42 44.83-143.79 33.66-40.37 81.02-65.22 133.37-69.97 5.96-.54 12.02-.82 18.01-.82 102.34 0 186.49 76.96 195.76 179.02 4.75 52.35-11.17 103.41-44.82 143.79-33.66 40.37-81.03 65.22-133.38 69.97-5.96.54-12.02.82-18.01.82Zm.45-374.14c-5.4 0-10.86.25-16.25.73-47.17 4.28-89.86 26.68-120.19 63.06-30.33 36.38-44.68 82.4-40.4 129.57 8.34 91.97 84.17 161.33 176.38 161.33 5.4 0 10.86-.25 16.25-.73 47.17-4.28 89.86-26.68 120.2-63.06 30.33-36.38 44.67-82.4 40.39-129.57-8.34-91.97-84.17-161.33-176.38-161.33Z"
    fill="#C9B5DE"
    stroke="#6E5A82"
    stroke-width="5"
    stroke-linejoin="round"
  />

  <use href="#intraluminal-vesicle" transform="translate(135 115) scale(.18)" />
  <use href="#intraluminal-vesicle" transform="translate(265 105) scale(.15)" />
  <use href="#intraluminal-vesicle" transform="translate(300 225) scale(.17)" />
  <use href="#intraluminal-vesicle" transform="translate(205 265) scale(.14)" />
  <use href="#intraluminal-vesicle" transform="translate(105 235) scale(.13)" />
</svg>
