<svg xmlns="http://www.w3.org/2000/svg" viewBox="0 0 500 500" role="img" aria-labelledby="title desc">
  <title id="title">Peroxisome</title>
  <desc id="desc">Editable flat peroxisome with a single membrane and granular enzyme matrix.</desc>
  <circle cx="250" cy="250" r="210" fill="#B8DAD6" fill-opacity=".78" stroke="#4D7778" stroke-width="5"/>
  <circle cx="250" cy="250" r="184" fill="#EFF9F7" fill-opacity=".92"/>
  <circle cx="250" cy="250" r="184" fill="none" stroke="#85B7B1" stroke-opacity=".55" stroke-width="3"/>
  <path d="M125 158c28-34 69-55 114-58" fill="none" stroke="#FFFFFF" stroke-opacity=".78" stroke-width="11" stroke-linecap="round"/>
  <g fill="#6F9892" fill-opacity=".34">
    <circle cx="164" cy="212" r="7"/><circle cx="191" cy="180" r="5"/><circle cx="224" cy="162" r="6"/>
    <circle cx="282" cy="171" r="5"/><circle cx="326" cy="194" r="7"/><circle cx="353" cy="226" r="5"/>
    <circle cx="145" cy="263" r="5"/><circle cx="170" cy="305" r="7"/><circle cx="203" cy="339" r="5"/>
    <circle cx="244" cy="357" r="7"/><circle cx="294" cy="347" r="5"/><circle cx="338" cy="319" r="6"/>
    <circle cx="362" cy="278" r="5"/><circle cx="128" cy="235" r="4"/><circle cx="317" cy="157" r="4"/>
  </g>
  <g fill="#9985B9" fill-opacity=".88" stroke="#6A5B84" stroke-width="3" stroke-linejoin="round">
    <path d="M216 213l35-18 38 17 7 39-28 29-40-7-18-29z"/>
    <path d="M251 195l17 27-17 25-35-7-6-27z" fill="#B6A6D1"/>
    <path d="M289 212l-21 10-17 25 17 33 28-29z" fill="#806DA5"/>
  </g>
  <g fill="#FFFFFF" fill-opacity=".64">
    <circle cx="236" cy="216" r="4"/><circle cx="254" cy="210" r="3"/><circle cx="272" cy="226" r="4"/>
    <circle cx="245" cy="244" r="3"/><circle cx="266" cy="255" r="4"/>
  </g>
</svg>
