<?xml version="1.0" encoding="UTF-8"?>
<svg id="_图层_1" data-name="图层_1" xmlns="http://www.w3.org/2000/svg" version="1.1" viewBox="0 0 200 200">
  <!-- Generator: Adobe Illustrator 30.3.0, SVG Export Plug-In . SVG Version: 2.1.3 Build 182)  -->
  <defs>
    <style>
      .st0 {
        fill: #1296db;
      }

      .st1 {
        fill: #d81e06;
      }
    </style>
  </defs>
  <path class="st0" d="M44.5,72.1l-9.2,2.3h0c.4,2.4-.6,4.4-2.2,5,.8,1,2.1,1.5,3.4,1.2l10-2.5c1.6-.4,2.5-2.1,2-3.7s-2.4-2.6-4-2.2ZM58,59.8c1.7-.2,2.9-1.6,2.6-3.3l-1.8-10.1c-.2-1.3-1.2-2.3-2.4-2.6.2,1.7-1.3,3.4-3.6,4h0l1.6,9.3c.3,1.7,1.9,2.9,3.6,2.8Z"/>
  <path class="st1" d="M116.9,53.2c-16.9,0-32,7.9-41.7,20.2l-16.9-11-2.4-13.9c-2.7.2-5.1-.9-5.8-2.9-.1-.4-.2-.7-.2-1.1-1.2.7-1.9,2-1.6,3.5l2.9,16.6c.2,1,.7,1.8,1.5,2.4.2.2.5.4.7.6l17.8,11.6c-.3.5-.5.9-.8,1.3l-17.9-11.7c0,0-.2,0-.2-.2-.9-.7-2.2-1-3.4-.7l-16.3,4c-1.4.4-2.4,1.5-2.5,2.9.3-.2.7-.2,1-.3,2.1-.2,4.2,1.6,5,4.1l13.5-3.4,17.7,11.5c-2.3,6.1-3.6,12.6-3.6,19.4,0,29.4,23.8,53.2,53.2,53.2s53.2-23.8,53.2-53.2-23.8-53.2-53.2-53.2h0ZM117.8,144.8c-17.3,0-31.3-14-31.3-31.3s14-31.3,31.3-31.3,31.3,14,31.3,31.3-14,31.3-31.3,31.3h0Z"/>
</svg>