<svg t="1776732698151" class="icon" viewBox="0 0 1024 1024" version="1.1" xmlns="http://www.w3.org/2000/svg" p-id="2274" width="200" height="200"><path d="M938.365 393.639c-0.01-36.9-19.14-71.16-50.55-90.53-9.43-49.07-51.71-84.98-101.66-86.36-25.51-52.82-89-74.96-141.82-49.45l-1.23 0.6c-32.74-36.53-86.22-45.92-129.45-22.73-44.44-23.82-99.48-13.21-131.9 25.4-48.38-17.95-102.66 1.53-128.58 46.14-50.56 1.21-93.29 37.81-102.26 87.58-44.27 21.1-68.41 69.7-58.48 117.72-20.66 55.07 7.24 116.47 62.31 137.13 32.36 12.14 68.6 7.82 97.21-11.58 1.27 0 2.49 0.19 3.77 0.19 14.55 0.01 28.95-2.98 42.3-8.77 12.38 46.61 54.55 79.09 102.78 79.16 34.47 47.55 100.95 58.16 148.5 23.69 6.73-4.88 12.87-10.53 18.28-16.84 54.14 22.23 116.07-3.38 138.69-57.36a204.644 204.644 0 0 0 78.93 15.36c84.61 0 153.2-47.71 153.2-106.58a78.6 78.6 0 0 0-10.07-37.77 105.92 105.92 0 0 0 10.03-45z" fill="#EF7E20" p-id="2275"></path><path d="M487.185 683.709c-6.78 0-13.61-0.55-20.43-1.63-30.18-4.82-57.06-19.89-76.75-42.8-45.76-3.94-85.78-32.22-105.04-73.3-8.81 2.08-17.84 3.2-27.01 3.36-33.3 19.93-74.18 23.8-110.79 10.02-32.03-12.02-57.47-35.79-71.63-66.95-13.3-29.26-15.14-61.73-5.35-92.12-8.24-52.3 16.42-103.9 61.86-130.41 13.61-50.4 57.06-87.85 108.84-93.92 30.37-42.77 83.69-62.45 134.4-49.94 36.83-34.77 91.59-44.7 138.35-24.79a127.49 127.49 0 0 1 134.46 21.28c57.21-19.78 120.17 2.66 151.38 53.62 51.71 6.47 93.95 43.19 107.45 93.79 33.36 24.01 53.01 62.13 53.02 103.71 0 15.04-2.73 30.16-7.95 44.32a100.52 100.52 0 0 1 8 38.26c0 72.08-76.78 128.37-174.79 128.37-23.71 0.28-46.35-3.3-68.52-10.25-29.86 47.77-88.49 70.85-143.14 55.5-3.67 3.37-7.53 6.54-11.55 9.47-22.08 16.03-48.08 24.41-74.81 24.41z m-189.15-166.3c3.23 0 6.44 0.72 9.41 2.16a21.58 21.58 0 0 1 11.46 13.89c9.85 37.11 43.55 63.05 81.94 63.11a21.59 21.59 0 0 1 17.45 8.93c13.29 18.33 32.91 30.39 55.27 33.94 22.36 3.64 44.76-1.77 63.08-15.07a84.89 84.89 0 0 0 14.59-13.44c6.07-7.06 15.95-9.45 24.57-5.89 43 17.64 92.61-2.85 110.57-45.74 4.59-10.95 17.15-16.11 28.12-11.62 22.5 9.25 46.28 13.91 70.6 13.73 71.46 0 131.73-38.92 131.73-84.98-0.09-9.37-2.62-18.85-7.31-27.18a21.592 21.592 0 0 1-0.73-19.75c5.23-11.15 7.99-23.54 7.99-35.86-0.01-29.63-15.07-56.6-40.28-72.16a21.52 21.52 0 0 1-9.87-14.29c-7.58-39.43-40.92-67.75-81.05-68.86a21.547 21.547 0 0 1-18.84-12.19c-20.28-42.01-70.97-59.68-112.99-39.41-8.66 4.17-20.27 2.74-26.7-4.43-26.17-29.21-68.58-36.68-103.17-18.1-6.37 3.4-14.03 3.4-20.4 0-35.26-18.88-79.47-10.36-105.16 20.25-5.86 7-15.47 9.57-24.05 6.37a84.28 84.28 0 0 0-102.41 36.75 21.6 21.6 0 0 1-18.15 10.74c-40.11 0.96-74.4 30.32-81.53 69.83a21.645 21.645 0 0 1-11.95 15.66 84.744 84.744 0 0 0-46.63 93.85 21.5 21.5 0 0 1-0.93 11.96c-7.96 21.22-7.18 44.29 2.2 64.95 9.38 20.65 26.24 36.4 47.48 44.37 25.78 9.66 54.75 6.23 77.5-9.23 4.57-3.11 10.23-4.01 15.69-3.56h0.24c11.79 0 23.06-2.36 33.68-6.96 2.73-1.18 5.65-1.77 8.58-1.77z" fill="#363432" p-id="2276"></path><path d="M724.615 625.009c-32.59 46-89.83 67.64-144.7 54.69a137.62 137.62 0 0 1-40.59 23.99c33.33 40.62 94.26 121.79 114.72 195.05 12.09 0 46.72-0.76 64.18-30.22a561.652 561.652 0 0 0-50.58-112.62l-0.09-1.9c36.55 10.75 76.05 1.07 103.48-25.36l0.1-0.16a106.567 106.567 0 0 0 25.33-37.9c58.29 6.68 110.96-35.15 117.64-93.44l0.06-0.53a221.326 221.326 0 0 1-125.42 36.96c-21.65-0.01-43.22-2.89-64.13-8.56z" fill="#FFFBF1" p-id="2277"></path><path d="M654.045 913.139c-6.46 0-12.12-4.3-13.86-10.51-19.66-70.39-78.6-149.13-111.99-189.79a14.387 14.387 0 0 1-2.78-12.85c1.19-4.48 4.48-8.11 8.81-9.75a122.745 122.745 0 0 0 36.34-21.48c3.49-2.98 8.21-4.09 12.64-3.06 49.41 11.67 100.31-7.56 129.66-49a14.41 14.41 0 0 1 15.51-5.57c20.58 5.57 41.77 8.1 63.19 8.07 41.03 0 80.56-11.92 114.65-34.58a14.32 14.32 0 0 1 15.48-0.28 14.37 14.37 0 0 1 6.78 13.91c-7.22 63-61 109.15-122.97 107.38-6.05 12.1-14.15 23.23-23.8 32.64-0.22 0.27-0.46 0.51-0.68 0.73-23.7 22.81-55.48 34.59-87.6 33.61a577.303 577.303 0 0 1 38.49 91.5c1.27 3.92 0.79 8.21-1.31 11.75-10.07 17.01-31.54 37.28-76.56 37.28z m-91.88-204.03c33.61 42.59 81.37 110.36 102.41 174.77 17.13-1.62 29.59-7.42 37.75-17.6-12.08-35.87-27.9-70.52-47.08-103.07a14.448 14.448 0 0 1-1.97-6.62l-0.09-1.9c-0.22-4.65 1.82-9.12 5.48-12 3.65-2.88 8.5-3.79 12.95-2.49 31.29 9.19 65.28 0.98 88.91-21.42 0.22-0.24 0.44-0.46 0.65-0.67 9.51-9.14 17.08-20.48 21.91-32.78 2.38-6.06 8.5-9.84 15.03-9.04 39.33 4.36 75.73-16.63 92.55-50.07-31.83 14.77-66.39 22.54-102.1 21.74-19.5-0.01-39.09-2.26-58.23-6.68-35.35 43.64-91.33 64.26-146.68 53.92-6.77 5.25-13.95 9.89-21.49 13.91z" fill="#363432" p-id="2278"></path><path d="M409.985 316.079c-3.32 0-6.66-1.14-9.37-3.47l-48.39-41.56c-6.03-5.19-6.73-14.27-1.55-20.3 5.19-6.03 14.28-6.72 20.3-1.55l48.39 41.56c6.03 5.19 6.73 14.27 1.55 20.3a14.363 14.363 0 0 1-10.93 5.02z" fill="#363432" p-id="2279"></path><path d="M750.925 539.079c-0.46 0-0.93-0.01-1.39-0.07-7.91-0.76-13.71-7.79-12.95-15.7l0.21-2.15c3.82-39.2 9.58-98.44-85.91-126.27-84.09-24.51-109.46-61.23-120.46-100.13-5.91 6.94-13.07 12.76-21.42 17.32-27.52 15.05-62.96 13.54-86.05 8.64-9.47 62.25-65.6 104.24-142.99 104.24-62.28 0-75.54 21.48-75.67 21.69-3.87 6.63-12.43 9.39-19.26 5.82-6.82-3.56-9.81-11.5-6.58-18.48 1.79-3.87 19.83-37.81 101.51-37.81 69.15 0 115.61-37.96 115.61-94.47 0-4.99 2.59-9.63 6.83-12.24 4.23-2.63 9.53-2.85 14.01-0.63 9.12 4.58 51.54 12.87 78.79-2.01 15.22-8.31 23.7-22.49 25.94-43.33 0.77-7.15 6.68-12.64 13.87-12.86 6.94-0.38 13.42 4.91 14.62 11.99l1.6 9.77c7.88 48.94 14.1 87.59 107.69 114.88 118.4 34.51 110.36 117.04 106.51 156.7l-0.2 2.11c-0.72 7.42-6.98 12.99-14.31 12.99z" fill="#363432" p-id="2280"></path><path d="M357.815 494.479c-2.16 0-4.36-0.49-6.42-1.52-47.47-23.74-44.01-72.15-35.55-94.44 2.83-7.42 11.17-11.17 18.57-8.33 7.41 2.81 11.15 11.08 8.37 18.5-1.52 4.13-13.82 40.87 21.48 58.53 7.11 3.56 9.99 12.2 6.44 19.31-2.52 5.04-7.6 7.95-12.89 7.95zM573.305 539.069c-4.09 0-8.16-1.73-11.01-5.1-61.24-72.51-20.18-159.32 10.08-195.08 5.11-6.09 14.17-6.83 20.25-1.7 6.06 5.12 6.84 14.2 1.74 20.27-2.92 3.47-70.83 85.99-10.08 157.93 5.12 6.07 4.36 15.15-1.71 20.28-2.7 2.29-5.99 3.4-9.27 3.4z" fill="#363432" p-id="2281"></path><path d="M454.575 465.749c-3.32 0-6.66-1.14-9.38-3.49-6.02-5.19-6.7-14.27-1.52-20.3 1.59-1.84 39.59-44.79 106.3-18.96 7.41 2.88 11.08 11.22 8.21 18.62-2.87 7.42-11.23 11.08-18.62 8.22-47.91-18.6-73.81 10.6-74.07 10.89a14.343 14.343 0 0 1-10.92 5.02zM642.575 391.579c-7.89 0-14.32-6.32-14.39-14.22-0.02-2.63-0.02-64.44 50.28-94.8 6.8-4.13 15.64-1.93 19.75 4.89 4.11 6.8 1.93 15.64-4.88 19.76-36.05 21.76-36.36 69.45-36.36 69.93 0.02 7.93-6.38 14.41-14.31 14.45-0.03-0.01-0.06-0.01-0.09-0.01zM855.195 465.749c-3.16 0-6.32-1.03-8.98-3.15-25.39-20.32-77.19-5.41-95.01 2.02-7.34 3.08-15.76-0.38-18.83-7.7-3.08-7.32 0.36-15.74 7.67-18.83 3.25-1.36 80.19-33.11 124.14 2.02 6.21 4.96 7.22 14.03 2.26 20.23a14.356 14.356 0 0 1-11.25 5.41z" fill="#363432" p-id="2282"></path></svg>
