<svg version="1.0" xmlns="http://www.w3.org/2000/svg" width="800.000000" height="800.000000" viewBox="0 0 800.000000 800.000000" preserveAspectRatio="xMidYMid meet">
  <g transform="translate(188.611240,625.348642) scale(0.054338,-0.054338)" fill="#000000" stroke="none">
    <path d="M1680 7020 c-364 -22 -672 -124 -961 -319 -526 -353 -796 -900 -658 -1331 125 -390 729 -1092 1274 -1481 306 -219 617 -379 975 -500 261 -89 563 -154 825 -179 217 -20 655 -6 780 26 25 6 26 5 21 -27 -3 -19 -13 -92 -22 -164 -30 -248 -106 -622 -185 -915 -51 -187 -155 -538 -184 -619 -18 -51 -19 -104 -4 -134 59 -115 201 -133 282 -37 27 32 66 147 161 475 51 177 127 467 146 560 4 22 17 85 29 139 39 185 121 719 121 792 0 6 19 16 43 23 155 45 340 135 461 225 192 142 342 337 551 716 145 264 267 438 650 930 227 291 294 447 282 659 -2 53 -8 104 -12 113 -11 26 43 31 254 25 367 -10 667 -103 817 -252 70 -69 94 -125 94 -219 0 -164 -141 -312 -440 -461 -392 -196 -555 -348 -777 -724 -194 -330 -305 -460 -545 -645 -158 -121 -255 -224 -356 -374 -237 -355 -424 -873 -561 -1557 -69 -345 -68 -344 -40 -401 62 -125 231 -125 296 -1 8 16 19 56 24 90 41 262 148 717 230 972 116 365 294 715 442 873 29 30 111 100 182 155 254 197 405 373 601 701 131 218 169 269 278 374 101 97 153 132 344 229 240 123 348 198 463 321 255 272 259 641 10 890 -170 170 -485 297 -841 342 -109 13 -443 13 -587 -1 l-112 -10 -74 41 c-100 54 -198 89 -407 143 -557 145 -1037 214 -1605 232 -631 19 -877 51 -1215 155 -295 91 -509 135 -715 145 -66 3 -142 7 -170 9 -27 1 -102 0 -165 -4z m346 -331 c162 -16 353 -54 499 -99 413 -127 690 -172 1148 -187 154 -4 207 -9 207 -18 0 -28 -92 -136 -152 -178 -141 -101 -296 -167 -578 -248 -230 -66 -304 -103 -401 -199 -87 -87 -147 -193 -180 -317 -42 -161 -34 -470 14 -557 60 -109 202 -124 275 -28 30 40 32 67 17 278 -9 125 8 231 50 314 53 105 104 136 340 204 370 107 585 211 744 361 91 86 127 136 190 263 l52 102 37 -5 c20 -3 105 -12 187 -21 177 -18 404 -54 605 -95 161 -33 512 -120 587 -145 137 -46 231 -125 258 -217 39 -130 2 -231 -166 -453 -40 -53 -78 -98 -84 -100 -6 -3 -51 19 -101 47 -335 195 -641 272 -887 225 -179 -35 -320 -113 -537 -300 -113 -98 -162 -119 -290 -124 -124 -5 -242 14 -363 59 -93 34 -148 37 -197 10 -114 -61 -110 -224 8 -285 43 -22 209 -73 302 -92 120 -26 352 -26 435 0 124 37 229 102 373 228 175 153 326 209 504 187 133 -16 347 -101 493 -194 l55 -36 -60 -79 c-95 -124 -261 -375 -325 -490 -191 -344 -277 -473 -394 -593 -182 -186 -481 -307 -896 -362 -175 -23 -385 -31 -385 -16 0 22 97 203 161 302 82 125 222 265 309 309 126 64 230 75 358 40 39 -11 89 -20 109 -20 96 0 174 111 143 204 -34 105 -199 163 -435 153 -190 -8 -335 -66 -497 -201 -170 -141 -350 -408 -480 -712 l-27 -62 -43 8 c-24 5 -97 18 -163 31 -321 59 -704 199 -988 360 -189 108 -487 316 -487 340 0 5 39 9 88 9 147 0 325 37 455 94 l54 24 94 -48 c246 -127 505 -191 776 -194 108 -1 124 1 149 20 42 31 65 67 71 112 7 53 -1 83 -33 122 -43 50 -75 61 -218 71 -222 15 -363 48 -519 121 -68 32 -86 45 -81 57 48 113 57 167 58 321 1 148 0 157 -24 200 -34 61 -80 90 -142 90 -60 0 -99 -19 -135 -67 -28 -36 -28 -39 -25 -157 6 -267 -63 -362 -307 -423 -97 -25 -377 -24 -541 2 -121 18 -126 20 -169 59 -93 87 -353 417 -448 571 -81 130 -106 203 -111 320 -5 122 13 205 67 319 51 106 91 167 175 265 163 191 428 367 672 446 l81 26 69 -71 c188 -195 272 -360 262 -517 -4 -63 -12 -88 -49 -160 -34 -67 -44 -96 -43 -132 1 -62 34 -114 88 -140 111 -54 199 1 275 171 47 107 56 154 56 293 0 116 -3 139 -29 218 -31 96 -110 235 -188 335 l-50 62 84 0 c47 0 134 -5 194 -11z"/>
    <path d="M1099 6061 c-77 -49 -159 -182 -194 -316 -20 -78 -20 -255 1 -348 22 -98 76 -210 116 -238 41 -30 123 -37 166 -15 39 20 81 81 89 129 4 26 -3 59 -27 124 -27 72 -33 103 -33 173 -1 97 18 149 95 253 38 52 43 64 42 112 -1 128 -142 198 -255 126z"/>
  </g>
</svg>
