<svg xmlns="http://www.w3.org/2000/svg" width="200" height="200" viewBox="0 0 256 256"><path fill="currentColor" fill-opacity="0.28" d="M 30 128 C 28 85 58 45 108 42 C 162 38 210 60 222 108 C 232 148 228 185 202 200 C 185 212 168 213 152 208 L 150 202 C 145 204 138 206 132 205 C 120 215 100 218 82 212 C 58 205 38 188 32 168 C 26 152 24 138 30 128 Z"/><path fill="currentColor" fill-opacity="0.55" d="M 132 45 C 126 75 121 110 118 142 C 121 141 124 140 127 140 C 130 108 135 76 140 47 Z"/><path fill="currentColor" fill-opacity="0.45" d="M 55 152 C 95 148 140 146 185 142 C 185 146 185 149 184 152 C 140 155 95 157 55 158 Z"/><path fill="currentColor" d="M 30 128 C 28 85 58 45 108 42 C 124 41 130 42 134 44 L 128 95 L 122 148 C 100 152 72 154 52 152 C 40 150 30 140 30 128 Z"/></svg>