<svg t="1787121056417" class="icon" viewBox="0 0 1024 1024" version="1.1" xmlns="http://www.w3.org/2000/svg" p-id="10335" width="200" height="200"><path d="M400.92574 620.47148c2.984984-21.635763-1.49505-50.735521 14.771425-59.087747-10.079566-3.707438-4.550643-23.023366-5.90857-35.452443-12.401448 6.309706-2.595105 34.825157-8.862855 47.26856-10.205433-1.609661-5.179976-18.452257-14.771425-20.678972 1.225921 19.37221 16.652262 37.278022 8.862855 70.903863-29.460985 10.912537-57.713446 23.036669-76.813456 44.314275-14.224979-35.542494 7.723915-76.413344 29.543873-94.539166-9.129938-9.17394-4.990664 10.001795-17.72571 5.90857 6.011924-10.758018 0.506537-17.643845-2.954285-26.587542-1.933025 18.547425-7.723915 48.743144-17.726733 67.949578-10.658757-3.12927-6.096858-21.47715-17.72571-23.636327 2.492774 25.413809 20.366863 29.609365 14.771425 76.812433-20.661575 16.760732-44.551682 30.29191-70.903863 41.361013 11.629875-24.804942 8.834202-64.041572 20.679995-88.629573-9.064446-0.998747-10.632151-0.022513-11.818163 14.771425-6.551206 1.627057-4.205788-5.640464-8.862855-5.907547-3.700275 6.788613 0.973164 30.43722 5.90857 38.405705-2.714831 16.978696-12.618389 26.77276-11.81714 47.269583-40.439014 29.480428-55.890938 83.946924-115.219161 94.538143 62.600757-76.302827 108.574834-169.115676 118.172423-292.478308 2.350534-64.349587 1.636267-250.586199 2.955308-277.709953 4.324492-26.464745 31.446199-71.044056 40.98546-103.777575 7.814989-25.551956 12.888542-59.477626 13.769608-58.59656s2.350534 0.286526 4.331655-0.11461c-5.995551 62.575174-53.464679 148.719136-52.540633 167.425174s3.069919 211.141838-3.792373 296.40678c32.780591-2.670829 34.32476-33.824363 68.150146-35.45142 60.363809-56.825217 182.53122-51.847855 274.754644-76.812433 70.684876-10.178827 159.803589-36.467563 224.529753-2.954285 92.77294 12.595876 153.331177 57.415664 206.805066 109.309568 0.294712 12.111852 0.580215 24.214495-2.954285 32.498158-80.045057 35.70213-205.387787 1.306762-295.434639 11.818163-62.575174 22.11467-116.764354 52.618405-174.307931 79.766718-15.260565 10.341532-22.817682 28.388561-47.267537 29.543873-57.088206 42.376133-146.992819 51.933813-180.215478 118.172423-4.201695 79.653131-67.481927 176.47427-171.352623 171.353646-54.460356-2.687202-87.776136-27.969005-118.173446-70.90591 0-9.847276 0-19.694551 0-29.541827 29.062919-21.160949 56.752562-43.695175 100.447736-50.223868 7.898901 19.470447 1.112334 47.843658-5.90857 62.041008 2.62478 7.088442 8.993838-6.42227 8.862855-11.81714 11.43954-1.593288 12.167111 7.529487 20.679995 8.862855-15.95232-11.620665-14.161534-40.986483-17.72571-64.996316 26.386974-15.179724 61.830207-13.44829 82.721003 5.90857 1.632173 9.200546 2.412956 19.25146 5.909593 26.588565 6.604418-1.272993 1.197268-14.561647 2.954285-20.681018 11.880585-2.033309 16.865109 2.831488 26.587542 2.954285-2.460028-14.980179-13.583366-3.729951-26.587542-5.907547-11.972683-12.648065-27.833929-21.405519-47.269583-26.589588 12.760628-16.782222 24.390503-34.695197 38.405705-50.224892 29.134551 0.410346 43.822065 15.266705 59.087747 29.544897 8.975419-5.379521-16.343223-16.797571-8.863878-20.679995 11.881608-2.033309 16.865109 2.830465 26.589588 2.954285-12.258185-16.300244-52.29504-4.822842-67.949578-17.726733 23.036669-38.123272 76.069513-55.785537 112.264876-20.678972 1.278109-14.287401-6.242168-2.90926-11.81714-11.818163-1.331321-8.225335 16.102746 2.316765 14.771425-5.90857-6.507204-5.310959-21.053502-2.580778-29.543873-5.907547 0.731664-3.208065 5.874801-2.006703 5.90857-5.907547-1.635243-6.40692-11.42419 10.005888-17.72571 0 28.453029-29.646204 72.145134-57.207933 109.310591-17.727757 1.414209-12.310374-25.570375-21.652136-41.361013-26.588565 3.774977-15.431457 24.752754-13.637602 41.361013-20.679995 30.324656-12.860912 45.689598-30.763654 79.766718-5.90857-2.320858-13.434987-18.191314-13.3214-29.54285-17.724687 21.38403-23.9996 80.500429-44.360324 109.309568-17.726733 3.559059-3.753487-9.072633-16.384156-17.724687-17.72571 29.368888-20.513196 75.142397-35.085076 109.310591-11.81714 6.339382-5.583159-12.177344-11.286044-17.724687-14.771425 38.358633-1.517563 83.327824-32.484855 109.308545-2.957355 7.739265-8.604982-8.080026-14.06432-14.771425-17.269315 32.295544-2.731204 99.16451-9.764388 110.422925 18.381649 2.920516-11.781324-14.556531-10.007935-11.634991-21.791305 25.086351 3.473101 54.534034 14.971993 67.588351 30.477129 1.428535-9.304923-12.894681-11.04659-13.951757-20.503986 25.397437 3.162016 46.989197 13.174044 72.105225 16.616446-1.561565-2.37714 0.425695-1.288343 0.551562-5.358031-0.059352-5.226025-17.444301 1.200338-21.230534-6.460132 0.809435-6.080485 11.004635-2.781346 11.81714-8.861832-19.082614 1.245364-20.051685 0.846274-36.968983 1.515516-6.481621-9.369392 14.492062-8.833179 14.176884-21.354354-11.938913 3.815909-19.071358 12.444427-27.432793 19.838837-12.855796-5.854335-32.374338-3.181459-44.654013-8.862855 4.976338-16.692171 19.328207-21.386076 26.928303-35.452443-6.252401-9.812483-8.580422 13.053294-17.72571 10.092869-5.101181-1.793856 0.228197-18.197454-5.90857-18.956747-1.38351 12.533454 3.291976 35.998889-12.791327 41.361013-9.614985-9.094122-34.3002-3.858888-52.204989-4.6673-2.696412-23.37743 6.272867-36.33044 15.504112-47.777143-4.045129-5.750981-13.801331 7.665587-16.135492 13.407358-8.998955-1.834788-1.151219-18.21485-10.151197-20.048615 1.396813 20.269649 10.094916 27.26497 4.774747 54.248531-23.705911-3.240811-40.805358-3.354398-59.429531 1.442862-8.17417-18.412348-9.834996-48.369637-26.14752-58.646702 10.909467 16.122189 7.233752 50.442856 17.724687 59.249429-18.48091 7.121188-35.294854 12.793374-62.041008 11.653411-1.600451-14.402011 11.872399-27.685549 14.7264-35.405371-11.069103 0.602727-14.821567 18.122753-18.203594 2.944052-2.714831-8.577353-7.128351-17.59575-27.481911-28.164456 8.466835 20.091594 30.43108 26.686802 25.050536 60.625776-31.877011 0.621147-53.515844 11.481496-79.767741 17.724687-2.774183-27.392884 4.541433-44.698015 11.818163-62.041008-7.91118-4.819772-15.568581 15.844873-14.772448 29.543873-11.101849-4.575202-20.258393-8.425903-32.498158-17.724687 2.551102 14.190187 18.33867 15.142885 26.588565 23.635303 0.022513 15.157211-4.324492 19.380396 0 32.498158-26.995841 7.469112-50.414203 18.518772-79.766718 23.63428-1.432629-35.887348 4.955872-59.012022 11.818163-73.859171-7.824199 0.317225-3.019777 17.61724-8.863878 2.955308-9.79611 1.034563-4.635577 17.028838-5.90857 26.588565-7.40669-2.440585-9.344832-10.347672-14.771425-14.773472 0.924045 11.930727 17.141402 34.028001 11.81714 62.043055C446.718693 588.384691 431.560458 608.163153 400.92574 620.47148z" p-id="10336"></path><path d="M134.399501 176.326914c1.792832-3.00238 7.115048-5.26798 9.413394-3.572362 71.427796 108.149139 69.563332 247.659543 62.125943 252.729002-8.253988 1.752924-22.580275-44.63764-118.088512-35.452443-2.729158-1.382487-3.539616-4.891404-0.340761-6.77838 48.777937-10.934027 90.331331 6.599302 114.450658 29.390377C207.824791 350.604146 185.905572 252.93264 134.399501 176.326914z" p-id="10337"></path><path d="M153.756361 145.400554c0 0 50.117444 71.88726 59.436694 70.352301s43.187615-107.801215 45.391816-110.005416 5.656837-0.50756 5.432733 1.705851c-1.101077 10.858302-40.420595 116.409267-50.883901 116.409267-6.932899 0-63.308885-71.260997-63.308885-71.260997L153.756361 145.400554z" p-id="10338"></path><path d="M16.860505 833.184093c-25.807782-99.641371 44.208874-172.184571 106.35733-212.712613 21.383006-13.945617 53.688783-23.977088 64.996316-41.362037 12.175297-18.723434 12.821003-71.161736 7.766894-94.539166-7.692193-35.57524-62.421678-59.380412-102.33062-62.042032-8.918114-0.635473-2.929726-8.861832-2.929726-8.861832 58.523905-4.362354 101.874225 35.898605 112.264876 53.479005s0.883113 100.210329-8.862855 147.417491c-6.668886 32.30066-84.514859 157.653623-103.402021 197.940165C68.028884 821.326021 50.278615 835.090513 16.860505 833.184093z" p-id="10339"></path></svg>
