<svg xmlns="http://www.w3.org/2000/svg" width="200" height="200" viewBox="0 0 256 256"><ellipse fill="currentColor" fill-opacity="0.45" cx="112" cy="160" rx="78" ry="82"/><ellipse fill="currentColor" fill-opacity="0.22" cx="112" cy="160" rx="66" ry="70"/><ellipse fill="currentColor" cx="170" cy="90" rx="30" ry="22"/><path fill="currentColor" d="M 192 100 C 214 128 216 172 204 212 C 200 228 186 236 174 230 C 166 222 174 210 182 196 C 194 160 192 128 178 108 C 174 100 184 95 192 100 Z"/><ellipse fill="currentColor" cx="184" cy="228" rx="18" ry="13"/><path fill="currentColor" d="M 168 18 L 188 18 C 192 52 186 76 180 90 L 162 90 C 158 76 162 52 168 18 Z"/></svg>